<?xml version="1.0" encoding="utf-8"?>
<!-- Generator: Adobe Illustrator 22.1.0, SVG Export Plug-In . SVG Version: 6.00 Build 0)  -->
<svg version="1.1" id="Layer_1" xmlns="http://www.w3.org/2000/svg" xmlns:xlink="http://www.w3.org/1999/xlink" x="0px" y="0px"
	 viewBox="0 0 595.3 841.9" style="enable-background:new 0 0 595.3 841.9;" xml:space="preserve">
<style type="text/css">
	.st0{fill:#1A1A1A;}
</style>
<g>
	<path class="st0" d="M203.4,246c-1.8,0-3.5,0.8-4.7,2.1l-6.6,7.4h0l-8.2,9.3c-2.5,2.8-6.9,2.8-9.4,0l-8.2-9.3h0l-6.6-7.4
		c-1.2-1.3-2.9-2.1-4.7-2.1c-5.4,0-8.3,6.4-4.7,10.5l24.2,27.3c2.5,2.8,6.9,2.8,9.4,0l24.2-27.3C211.7,252.4,208.8,246,203.4,246z"
		/>
	<path class="st0" d="M232.3,238.9l-24.2-27.3c-2.5-2.8-6.9-2.8-9.4,0l-19.5,22l-19.5-22c-2.5-2.8-6.9-2.8-9.4,0L126,238.9
		c-3.6,4.1-0.7,10.5,4.7,10.5c1.8,0,3.5-0.8,4.7-2.1l6.6-7.4h0l8.2-9.3c2.5-2.8,6.9-2.8,9.4,0l8.2,9.3h0l6.6,7.4
		c0.5,0.6,1.1,1.1,1.8,1.4c0.1,0,0.1,0.1,0.2,0.1c0.1,0,0.2,0.1,0.2,0.1c0.1,0,0.2,0.1,0.3,0.1c0.1,0,0.1,0.1,0.2,0.1
		c0.2,0.1,0.3,0.1,0.5,0.1c0.1,0,0.2,0,0.2,0c0.1,0,0.2,0,0.3,0.1c0.1,0,0.2,0,0.3,0c0.1,0,0.3,0,0.4,0c0,0,0.1,0,0.1,0h0
		c0,0,0,0,0,0c0,0,0,0,0,0c0,0,0.1,0,0.1,0c0.2,0,0.3,0,0.4,0c0.1,0,0.2,0,0.3,0c0.1,0,0.2,0,0.3-0.1c0.1,0,0.2,0,0.2,0
		c0.2,0,0.3-0.1,0.5-0.1c0.1,0,0.1,0,0.2-0.1c0.1,0,0.2-0.1,0.3-0.1c0.1,0,0.2-0.1,0.2-0.1c0.1,0,0.1-0.1,0.2-0.1
		c0.7-0.4,1.3-0.8,1.8-1.4l6.6-7.4h0l8.2-9.3c2.5-2.8,6.9-2.8,9.4,0l8.2,9.3h0l6.6,7.4c1.2,1.3,2.9,2.1,4.7,2.1h0
		C233.1,249.4,236,242.9,232.3,238.9z"/>
</g>
<g>
	<g>
		<path class="st0" d="M294.2,221.7l-11,27.5l-10.4-27.5h-13.3l-8.8,51.6h13.4l4.4-29.7l11.9,29.7h5.3l12.5-29.7l3.8,29.7h13.4
			l-7.8-51.6H294.2z M350.2,220.1c-9.1,0-16.3,3-21.6,9c-2.1,2.4-3.8,5.3-5.1,8.6c-1.3,3.4-1.9,6.7-1.9,9.9c0,7,2.3,13.2,7,18.5
			c5.3,6,12.5,9,21.6,9c9.1,0,16.3-3,21.6-9c4.7-5.3,7-11.5,7-18.5c0-7-2.3-13.2-7-18.5C366.5,223.2,359.3,220.1,350.2,220.1z
			 M361.4,257.1c-2.9,3.4-6.6,5.1-11.2,5.1c-4.6,0-8.3-1.7-11.2-5.1c-2.3-2.8-3.5-5.9-3.5-9.4c0-1.7,0.3-3.4,0.9-5
			c1.1-2.9,2.8-5.2,5.3-6.9c2.5-1.7,5.3-2.6,8.4-2.6c4.5,0,8.2,1.7,11.2,5.1c2.3,2.7,3.5,5.8,3.5,9.4
			C364.9,251.3,363.7,254.4,361.4,257.1z M410.3,242c-3.8-1.1-6.1-1.9-6.8-2.4c-1.7-1-2.5-2.2-2.5-3.5c0-1.4,0.6-2.5,1.9-3.3
			c1.1-0.7,2.4-1.1,3.9-1.1c3,0,5.9,1.1,8.9,3.4l5.4-10.4c-5.3-2.8-10.8-4.2-16.4-4.2c-5.5,0-10,1.9-13.3,5.6
			c-2.9,3.1-4.3,7.1-4.3,11.9c0,4.6,1.4,8,4.1,10.3c1,0.8,2.1,1.5,3.5,2c0.9,0.4,3,1.1,6.3,2c2.8,0.8,4.7,1.6,5.9,2.3
			c1.6,1,2.3,2.3,2.3,3.8c0,1.7-0.7,3-2.1,3.9c-1.2,0.8-2.7,1.2-4.4,1.2c-3.9,0-7.8-1.8-11.9-5.5l-5.8,10.8c5.5,3.9,11.5,5.9,18,5.9
			c3.1,0,6-0.5,8.6-1.4c7.7-2.7,11.5-8.3,11.5-17.1c0-3.4-0.9-6.2-2.6-8.4C418.5,245.3,415.1,243.4,410.3,242z M466.8,227
			c-3.2-3.6-7.8-5.3-13.8-5.3h-21.4v51.6H445v-17.1h8.4c6.6,0,11.3-2,14.2-5.9c2.2-3,3.3-6.9,3.3-11.6
			C470.9,234,469.5,230.1,466.8,227z M455.5,243.5c-1.1,1.3-3.1,1.9-6,1.9H445v-12.9h4.5c2.7,0,4.6,0.6,5.8,1.7
			c1.1,1.2,1.7,2.7,1.7,4.6C457,240.8,456.5,242.3,455.5,243.5z"/>
	</g>
</g>
</svg>
