<?xml version="1.0" encoding="utf-8"?>
<!-- Generator: Adobe Illustrator 13.0.0, SVG Export Plug-In . SVG Version: 6.00 Build 14948)  -->
<!DOCTYPE svg PUBLIC "-//W3C//DTD SVG 1.1//EN" "http://www.w3.org/Graphics/SVG/1.1/DTD/svg11.dtd">
<svg version="1.1" id="Layer_1" xmlns="http://www.w3.org/2000/svg" xmlns:xlink="http://www.w3.org/1999/xlink" x="0px" y="0px"
	 width="499.674px" height="271.221px" viewBox="0 0 499.674 271.221" enable-background="new 0 0 499.674 271.221"
	 xml:space="preserve">
<g>
	<defs>
		<polygon id="SVGID_1_" points="54.674,215.008 495.674,213.008 497.674,52.008 60.674,48.008 		"/>
	</defs>
	<clipPath id="SVGID_2_">
		<use xlink:href="#SVGID_1_"  overflow="visible"/>
	</clipPath>
	<g clip-path="url(#SVGID_2_)">
		<defs>
			<polygon id="SVGID_3_" points="60.674,48.008 499.674,47.008 499.674,209.008 59.674,209.008 			"/>
		</defs>
		<clipPath id="SVGID_4_">
			<use xlink:href="#SVGID_3_"  overflow="visible"/>
		</clipPath>
		<path clip-path="url(#SVGID_4_)" fill="#0093B2" d="M237.75,79.139c-0.679-0.912-1.517-1.596-2.515-2.053
			c-0.997-0.456-2.037-0.684-3.119-0.684c-1.252,0-2.403,0.254-3.453,0.764c-1.05,0.509-1.958,1.193-2.721,2.052
			c-0.765,0.86-1.358,1.858-1.783,2.992c-0.425,1.136-0.637,2.319-0.637,3.549c0,1.316,0.212,2.542,0.637,3.677
			c0.425,1.135,1.013,2.122,1.767,2.96c0.753,0.838,1.655,1.501,2.705,1.989c1.05,0.488,2.212,0.732,3.485,0.732
			c1.379,0,2.61-0.271,3.692-0.811c1.083-0.542,2.026-1.321,2.833-2.34l2.005,1.687c-1.018,1.358-2.244,2.355-3.676,2.992
			c-1.432,0.637-3.05,0.955-4.854,0.955c-1.612,0-3.119-0.298-4.519-0.892c-1.401-0.593-2.616-1.416-3.645-2.466
			c-1.029-1.051-1.835-2.297-2.419-3.74s-0.875-3.024-0.875-4.743c0-1.655,0.281-3.203,0.843-4.647
			c0.563-1.442,1.353-2.694,2.372-3.755c1.018-1.061,2.228-1.899,3.628-2.515c1.401-0.615,2.939-0.923,4.615-0.923
			c1.528,0,2.997,0.276,4.409,0.827c1.411,0.553,2.594,1.454,3.548,2.706L237.75,79.139z"/>
		<polygon clip-path="url(#SVGID_4_)" fill="#0093B2" points="244.371,74.493 258.535,74.493 258.535,76.975 247.044,76.975 
			247.044,84.041 257.771,84.041 257.771,86.523 247.044,86.523 247.044,94.544 259.108,94.544 259.108,97.027 244.371,97.027 		"/>
		<polygon clip-path="url(#SVGID_4_)" fill="#0093B2" points="263.245,74.493 266.619,74.493 279.668,93.208 279.732,93.208 
			279.732,74.493 282.406,74.493 282.406,97.027 279.032,97.027 265.982,78.312 265.919,78.312 265.919,97.027 263.245,97.027 		"/>
		<polygon clip-path="url(#SVGID_4_)" fill="#0093B2" points="303.127,76.975 295.679,76.975 295.679,97.027 293.005,97.027 
			293.005,76.975 285.557,76.975 285.557,74.493 303.127,74.493 		"/>
		<path clip-path="url(#SVGID_4_)" fill="#0093B2" d="M306.275,74.493h5.763c1.081,0,2.157,0.063,3.23,0.19
			c1.07,0.128,2.031,0.404,2.88,0.828c0.849,0.425,1.538,1.045,2.069,1.862c0.53,0.817,0.796,1.925,0.796,3.326
			c0,1.655-0.499,2.992-1.496,4.01c-0.998,1.019-2.378,1.666-4.138,1.942l6.396,10.376h-3.277l-6.111-10.121h-3.438v10.121h-2.674
			V74.493z M308.949,84.423h2.388c0.743,0,1.512-0.021,2.308-0.064c0.796-0.042,1.527-0.179,2.197-0.413
			c0.668-0.234,1.219-0.6,1.654-1.099c0.435-0.498,0.652-1.214,0.652-2.148c0-0.806-0.16-1.453-0.477-1.941
			c-0.319-0.488-0.738-0.865-1.258-1.131c-0.521-0.264-1.104-0.439-1.75-0.524c-0.648-0.085-1.302-0.128-1.958-0.128h-3.757V84.423z
			"/>
		<polygon clip-path="url(#SVGID_4_)" fill="#0093B2" points="325.724,74.493 339.888,74.493 339.888,76.975 328.397,76.975 
			328.397,84.041 339.124,84.041 339.124,86.523 328.397,86.523 328.397,94.544 340.461,94.544 340.461,97.027 325.724,97.027 		"/>
		<polygon clip-path="url(#SVGID_4_)" fill="#0093B2" points="351.801,74.493 365.773,74.493 365.773,76.975 354.475,76.975 
			354.475,84.422 364.979,84.422 364.979,86.905 354.475,86.905 354.475,97.027 351.801,97.027 		"/>
		<path clip-path="url(#SVGID_4_)" fill="#0093B2" d="M379.969,97.601c-1.718,0-3.294-0.298-4.726-0.892
			c-1.434-0.593-2.673-1.416-3.725-2.466c-1.051-1.051-1.866-2.303-2.451-3.756c-0.584-1.453-0.876-3.029-0.876-4.727
			c0-1.697,0.292-3.273,0.876-4.726c0.585-1.454,1.4-2.705,2.451-3.756c1.052-1.05,2.291-1.872,3.725-2.467
			c1.432-0.593,3.008-0.891,4.726-0.891c1.719,0,3.295,0.298,4.728,0.891c1.432,0.595,2.673,1.417,3.724,2.467
			c1.051,1.051,1.867,2.302,2.451,3.756c0.583,1.453,0.875,3.029,0.875,4.726c0,1.698-0.292,3.274-0.875,4.727
			c-0.584,1.453-1.4,2.705-2.451,3.756c-1.051,1.05-2.292,1.873-3.724,2.466C383.264,97.302,381.688,97.601,379.969,97.601
			 M379.969,95.117c1.316,0,2.521-0.244,3.613-0.732c1.093-0.488,2.032-1.156,2.816-2.005s1.395-1.841,1.83-2.976
			c0.435-1.135,0.652-2.35,0.652-3.645c0-1.294-0.218-2.508-0.652-3.644c-0.436-1.135-1.046-2.127-1.83-2.976
			c-0.784-0.849-1.724-1.517-2.816-2.005c-1.093-0.488-2.297-0.732-3.613-0.732s-2.519,0.244-3.613,0.732
			c-1.092,0.488-2.03,1.156-2.815,2.005c-0.785,0.849-1.396,1.841-1.83,2.976c-0.436,1.136-0.652,2.35-0.652,3.644
			c0,1.295,0.217,2.51,0.652,3.645c0.435,1.135,1.045,2.127,1.83,2.976s1.724,1.517,2.815,2.005
			C377.45,94.874,378.652,95.117,379.969,95.117"/>
		<path clip-path="url(#SVGID_4_)" fill="#0093B2" d="M396.042,74.493h5.762c1.082,0,2.158,0.063,3.231,0.19
			c1.07,0.128,2.031,0.404,2.88,0.828c0.848,0.425,1.538,1.045,2.069,1.862c0.529,0.817,0.796,1.925,0.796,3.326
			c0,1.655-0.499,2.992-1.496,4.01c-0.998,1.019-2.378,1.666-4.138,1.942l6.396,10.376h-3.278l-6.11-10.121h-3.438v10.121h-2.674
			V74.493z M398.716,84.423h2.388c0.742,0,1.512-0.021,2.308-0.064c0.796-0.042,1.526-0.179,2.197-0.413
			c0.668-0.234,1.219-0.6,1.653-1.099c0.436-0.498,0.653-1.214,0.653-2.148c0-0.806-0.16-1.453-0.478-1.941
			c-0.318-0.488-0.737-0.865-1.258-1.131c-0.52-0.264-1.103-0.439-1.75-0.524c-0.647-0.085-1.3-0.128-1.958-0.128h-3.756V84.423z"/>
		<path clip-path="url(#SVGID_4_)" fill="#003B5C" d="M236.19,114.407c-0.488-0.594-1.087-1.051-1.798-1.369
			c-0.711-0.318-1.533-0.477-2.467-0.477s-1.798,0.181-2.594,0.541c-0.796,0.361-1.485,0.865-2.069,1.512s-1.04,1.416-1.368,2.307
			c-0.329,0.891-0.494,1.857-0.494,2.897c0,1.061,0.165,2.032,0.494,2.912c0.328,0.881,0.779,1.645,1.352,2.292
			c0.573,0.647,1.247,1.151,2.021,1.512c0.775,0.361,1.608,0.541,2.499,0.541c1.019,0,1.92-0.212,2.705-0.637
			c0.785-0.424,1.433-1.018,1.942-1.782l4.138,3.087c-0.955,1.337-2.165,2.323-3.629,2.96c-1.464,0.636-2.971,0.955-4.519,0.955
			c-1.762,0-3.385-0.276-4.87-0.827c-1.486-0.552-2.769-1.342-3.851-2.372c-1.083-1.029-1.926-2.275-2.531-3.74
			c-0.605-1.464-0.907-3.097-0.907-4.901c0-1.803,0.302-3.438,0.907-4.902c0.605-1.464,1.448-2.71,2.531-3.74
			c1.082-1.029,2.365-1.819,3.851-2.371c1.485-0.551,3.108-0.828,4.87-0.828c0.636,0,1.299,0.059,1.989,0.175
			c0.689,0.117,1.368,0.303,2.037,0.557c0.668,0.255,1.31,0.595,1.926,1.019c0.615,0.425,1.166,0.944,1.655,1.56L236.19,114.407z"/>
		<polygon clip-path="url(#SVGID_4_)" fill="#003B5C" points="248.794,121.473 240.329,108.551 246.502,108.551 251.278,116.986 
			256.337,108.551 262.227,108.551 253.76,121.473 253.76,131.085 248.794,131.085 		"/>
		<path clip-path="url(#SVGID_4_)" fill="#003B5C" d="M263.881,108.551h8.403c0.975,0,1.957,0.069,2.944,0.206
			c0.986,0.139,1.872,0.415,2.657,0.828c0.785,0.414,1.422,0.992,1.91,1.735s0.732,1.73,0.732,2.96c0,1.273-0.355,2.329-1.066,3.167
			s-1.65,1.438-2.817,1.798v0.064c0.743,0.106,1.417,0.313,2.022,0.621c0.604,0.307,1.124,0.7,1.559,1.177
			c0.435,0.478,0.769,1.034,1.002,1.671c0.234,0.637,0.35,1.316,0.35,2.037c0,1.189-0.254,2.18-0.763,2.976
			s-1.168,1.438-1.974,1.926c-0.807,0.488-1.713,0.838-2.721,1.051c-1.008,0.211-2.011,0.317-3.008,0.317h-9.23V108.551z
			 M268.847,117.558h3.597c0.382,0,0.758-0.042,1.13-0.127c0.371-0.085,0.705-0.223,1.002-0.414
			c0.297-0.191,0.536-0.446,0.716-0.764c0.181-0.318,0.271-0.7,0.271-1.146c0-0.466-0.101-0.854-0.302-1.162
			c-0.202-0.307-0.462-0.545-0.78-0.716c-0.318-0.169-0.68-0.291-1.082-0.366c-0.404-0.074-0.796-0.111-1.178-0.111h-3.374V117.558z
			 M268.847,126.884h4.456c0.382,0,0.769-0.042,1.162-0.127c0.392-0.085,0.748-0.234,1.066-0.446
			c0.319-0.212,0.578-0.488,0.78-0.827c0.201-0.34,0.302-0.753,0.302-1.242c0-0.53-0.132-0.96-0.398-1.289
			c-0.265-0.329-0.599-0.578-1.002-0.748c-0.403-0.169-0.839-0.286-1.305-0.35c-0.467-0.064-0.902-0.096-1.305-0.096h-3.756V126.884
			z"/>
		<polygon clip-path="url(#SVGID_4_)" fill="#003B5C" points="284.697,108.551 300.006,108.551 300.006,113.134 289.662,113.134 
			289.662,117.336 299.433,117.336 299.433,121.919 289.662,121.919 289.662,126.501 300.579,126.501 300.579,131.086 
			284.697,131.086 		"/>
		<path clip-path="url(#SVGID_4_)" fill="#003B5C" d="M304.558,108.55h8.721c1.146,0,2.233,0.112,3.263,0.335
			c1.029,0.222,1.931,0.594,2.706,1.113c0.773,0.521,1.39,1.221,1.845,2.101c0.457,0.881,0.685,1.979,0.685,3.295
			c0,1.591-0.414,2.944-1.241,4.058c-0.826,1.114-2.036,1.819-3.628,2.116l5.729,9.517h-5.952l-4.71-9.008h-2.451v9.008h-4.965
			V108.55z M309.522,117.876h2.929c0.445,0,0.917-0.016,1.415-0.048c0.499-0.031,0.95-0.127,1.354-0.286
			c0.403-0.159,0.737-0.408,1.002-0.748c0.265-0.339,0.398-0.816,0.398-1.432c0-0.573-0.117-1.029-0.351-1.369
			c-0.233-0.339-0.531-0.599-0.892-0.78c-0.36-0.18-0.774-0.302-1.241-0.366c-0.467-0.063-0.923-0.095-1.368-0.095h-3.247V117.876z"
			/>
		<path clip-path="url(#SVGID_4_)" fill="#003B5C" d="M346.802,114.057c-0.403-0.509-0.95-0.886-1.639-1.13
			c-0.69-0.244-1.342-0.366-1.958-0.366c-0.361,0-0.732,0.043-1.114,0.127c-0.382,0.085-0.743,0.218-1.082,0.398
			c-0.34,0.18-0.616,0.419-0.828,0.716c-0.212,0.298-0.317,0.658-0.317,1.082c0,0.68,0.254,1.199,0.764,1.56
			c0.509,0.361,1.149,0.668,1.926,0.923c0.774,0.255,1.607,0.509,2.498,0.764c0.891,0.255,1.724,0.616,2.498,1.082
			c0.775,0.467,1.417,1.093,1.927,1.878c0.509,0.785,0.764,1.836,0.764,3.151c0,1.252-0.233,2.345-0.7,3.278
			c-0.467,0.934-1.099,1.709-1.895,2.324c-0.796,0.616-1.718,1.071-2.769,1.368c-1.05,0.297-2.16,0.446-3.326,0.446
			c-1.464,0-2.822-0.222-4.074-0.668c-1.253-0.446-2.419-1.167-3.501-2.165l3.532-3.883c0.51,0.679,1.152,1.205,1.927,1.576
			c0.773,0.371,1.575,0.557,2.402,0.557c0.404,0,0.812-0.048,1.225-0.144c0.415-0.095,0.786-0.238,1.115-0.429
			c0.328-0.191,0.594-0.435,0.795-0.732c0.202-0.297,0.303-0.647,0.303-1.051c0-0.679-0.26-1.214-0.779-1.607
			c-0.521-0.392-1.173-0.727-1.957-1.003c-0.786-0.275-1.635-0.551-2.547-0.827c-0.912-0.276-1.763-0.647-2.547-1.114
			c-0.784-0.467-1.438-1.082-1.957-1.846c-0.521-0.764-0.779-1.772-0.779-3.024c0-1.209,0.239-2.27,0.716-3.183
			c0.477-0.912,1.114-1.676,1.91-2.291c0.796-0.615,1.713-1.077,2.753-1.385c1.039-0.308,2.111-0.461,3.214-0.461
			c1.273,0,2.504,0.18,3.693,0.541c1.188,0.361,2.259,0.966,3.214,1.814L346.802,114.057z"/>
		<polygon clip-path="url(#SVGID_4_)" fill="#003B5C" points="354.122,108.551 369.432,108.551 369.432,113.134 359.087,113.134 
			359.087,117.336 368.858,117.336 368.858,121.919 359.087,121.919 359.087,126.501 370.004,126.501 370.004,131.086 
			354.122,131.086 		"/>
		<path clip-path="url(#SVGID_4_)" fill="#003B5C" d="M388.719,114.407c-0.489-0.594-1.088-1.051-1.798-1.369
			c-0.711-0.318-1.533-0.477-2.467-0.477c-0.935,0-1.799,0.181-2.594,0.541c-0.797,0.361-1.486,0.865-2.069,1.512
			c-0.584,0.647-1.04,1.416-1.368,2.307c-0.33,0.891-0.493,1.857-0.493,2.897c0,1.061,0.163,2.032,0.493,2.912
			c0.328,0.881,0.78,1.645,1.353,2.292s1.246,1.151,2.021,1.512c0.775,0.361,1.608,0.541,2.499,0.541
			c1.019,0,1.92-0.212,2.706-0.637c0.784-0.424,1.432-1.018,1.941-1.782l4.138,3.087c-0.956,1.337-2.164,2.323-3.629,2.96
			c-1.464,0.636-2.972,0.955-4.521,0.955c-1.761,0-3.384-0.276-4.869-0.827c-1.485-0.552-2.769-1.342-3.851-2.372
			c-1.083-1.029-1.927-2.275-2.531-3.74c-0.604-1.464-0.907-3.097-0.907-4.901c0-1.803,0.304-3.438,0.907-4.902
			c0.604-1.464,1.448-2.71,2.531-3.74c1.082-1.029,2.365-1.819,3.851-2.371c1.485-0.551,3.108-0.828,4.869-0.828
			c0.638,0,1.3,0.059,1.99,0.175c0.689,0.117,1.368,0.303,2.037,0.557c0.668,0.255,1.31,0.595,1.926,1.019
			c0.615,0.425,1.166,0.944,1.655,1.56L388.719,114.407z"/>
		<path clip-path="url(#SVGID_4_)" fill="#003B5C" d="M414.787,122.396c0,1.337-0.202,2.568-0.605,3.692
			c-0.403,1.125-1.002,2.101-1.798,2.929c-0.796,0.827-1.788,1.474-2.978,1.941c-1.188,0.466-2.556,0.7-4.104,0.7
			c-1.57,0-2.95-0.234-4.138-0.7c-1.188-0.467-2.181-1.114-2.977-1.941c-0.796-0.828-1.395-1.804-1.799-2.929
			c-0.403-1.124-0.604-2.355-0.604-3.692v-13.845h4.966v13.654c0,0.7,0.111,1.348,0.334,1.942c0.224,0.594,0.535,1.109,0.938,1.543
			c0.404,0.436,0.886,0.775,1.449,1.019c0.562,0.244,1.172,0.366,1.83,0.366c0.657,0,1.262-0.122,1.813-0.366
			s1.029-0.583,1.433-1.019c0.402-0.434,0.717-0.949,0.938-1.543c0.224-0.594,0.334-1.242,0.334-1.942v-13.654h4.967V122.396z"/>
		<path clip-path="url(#SVGID_4_)" fill="#003B5C" d="M419.369,108.55h8.722c1.146,0,2.232,0.112,3.262,0.335
			c1.03,0.222,1.931,0.594,2.706,1.113c0.774,0.521,1.39,1.221,1.846,2.101c0.456,0.881,0.685,1.979,0.685,3.295
			c0,1.591-0.414,2.944-1.241,4.058c-0.827,1.114-2.037,1.819-3.628,2.116l5.728,9.517h-5.951l-4.711-9.008h-2.45v9.008h-4.966
			V108.55z M424.335,117.876h2.929c0.445,0,0.917-0.016,1.415-0.048c0.499-0.031,0.95-0.127,1.354-0.286
			c0.403-0.159,0.737-0.408,1.003-0.748c0.265-0.339,0.397-0.816,0.397-1.432c0-0.573-0.117-1.029-0.35-1.369
			c-0.234-0.339-0.531-0.599-0.892-0.78c-0.36-0.18-0.774-0.302-1.242-0.366c-0.467-0.063-0.923-0.095-1.367-0.095h-3.247V117.876z"
			/>
		<rect x="439.931" y="108.551" clip-path="url(#SVGID_4_)" fill="#003B5C" width="4.966" height="22.535"/>
		<polygon clip-path="url(#SVGID_4_)" fill="#003B5C" points="453.776,112.943 447.346,112.943 447.346,108.551 465.171,108.551 
			465.171,112.943 458.742,112.943 458.742,131.085 453.776,131.085 		"/>
		<polygon clip-path="url(#SVGID_4_)" fill="#003B5C" points="473.224,121.473 464.758,108.551 470.933,108.551 475.706,116.986 
			480.768,108.551 486.655,108.551 478.189,121.473 478.189,131.085 473.224,131.085 		"/>
		<path clip-path="url(#SVGID_4_)" fill="#0093B2" d="M220.412,142.606h6.875c0.934,0,1.846,0.096,2.738,0.287
			c0.891,0.189,1.686,0.504,2.387,0.938c0.7,0.436,1.267,1.002,1.703,1.702c0.434,0.701,0.652,1.571,0.652,2.61
			c0,1.315-0.355,2.402-1.066,3.262c-0.711,0.86-1.671,1.471-2.881,1.831v0.063c0.722,0.063,1.395,0.249,2.022,0.557
			c0.625,0.308,1.166,0.706,1.623,1.193c0.456,0.488,0.811,1.057,1.066,1.703c0.255,0.648,0.382,1.342,0.382,2.084
			c0,1.253-0.26,2.282-0.78,3.088c-0.52,0.807-1.199,1.448-2.037,1.927c-0.838,0.477-1.782,0.811-2.833,1.003
			c-1.05,0.189-2.096,0.286-3.135,0.286h-6.716V142.606z M223.085,152.155h3.692c0.637,0,1.257-0.043,1.862-0.127
			c0.605-0.085,1.151-0.26,1.639-0.525c0.488-0.266,0.881-0.637,1.178-1.114c0.297-0.478,0.445-1.108,0.445-1.895
			c0-0.7-0.138-1.268-0.413-1.703c-0.276-0.434-0.642-0.779-1.099-1.034c-0.456-0.254-0.976-0.43-1.559-0.524
			c-0.584-0.096-1.173-0.144-1.767-0.144h-3.978V152.155z M223.085,162.658h4.52c0.657,0,1.31-0.068,1.957-0.207
			c0.647-0.137,1.23-0.361,1.751-0.668c0.519-0.307,0.939-0.711,1.257-1.21c0.318-0.498,0.477-1.108,0.477-1.83
			c0-0.785-0.154-1.443-0.461-1.973c-0.308-0.531-0.711-0.955-1.21-1.273c-0.498-0.318-1.071-0.542-1.718-0.669
			c-0.648-0.127-1.311-0.191-1.99-0.191h-4.583V162.658z"/>
		<polygon clip-path="url(#SVGID_4_)" fill="#0093B2" points="240.464,142.605 254.628,142.605 254.628,145.089 243.138,145.089 
			243.138,152.155 253.864,152.155 253.864,154.638 243.138,154.638 243.138,162.658 255.201,162.658 255.201,165.141 
			240.464,165.141 		"/>
		<polygon clip-path="url(#SVGID_4_)" fill="#0093B2" points="259.338,142.605 262.012,142.605 262.012,162.658 272.324,162.658 
			272.324,165.141 259.338,165.141 		"/>
		<path clip-path="url(#SVGID_4_)" fill="#0093B2" d="M294.413,163.613c-1.295,0.722-2.658,1.252-4.09,1.591
			c-1.432,0.341-2.881,0.51-4.345,0.51c-1.761,0-3.374-0.286-4.838-0.859c-1.464-0.573-2.732-1.379-3.803-2.419
			c-1.072-1.04-1.905-2.286-2.499-3.739c-0.594-1.454-0.891-3.062-0.891-4.823c0-1.781,0.313-3.4,0.939-4.854
			c0.625-1.453,1.49-2.694,2.594-3.724c1.103-1.029,2.387-1.83,3.851-2.403s3.045-0.86,4.743-0.86c1.485,0,2.912,0.225,4.281,0.67
			c1.368,0.445,2.594,1.208,3.676,2.291l-2.005,2.101c-0.764-0.827-1.693-1.464-2.785-1.909c-1.094-0.445-2.212-0.669-3.358-0.669
			c-1.295,0-2.494,0.233-3.597,0.7c-1.103,0.468-2.064,1.114-2.881,1.941c-0.816,0.828-1.453,1.814-1.909,2.96
			c-0.457,1.146-0.685,2.399-0.685,3.756c0,1.338,0.228,2.579,0.685,3.725c0.456,1.146,1.093,2.138,1.909,2.976
			c0.817,0.839,1.799,1.491,2.944,1.958c1.147,0.466,2.409,0.7,3.788,0.7c0.913,0,1.867-0.112,2.865-0.334
			c0.997-0.223,1.91-0.546,2.737-0.971v-6.907h-5.188v-2.482h7.862V163.613z"/>
		<rect x="300.015" y="142.606" clip-path="url(#SVGID_4_)" fill="#0093B2" width="2.674" height="22.534"/>
		<path clip-path="url(#SVGID_4_)" fill="#0093B2" d="M325.191,156.548c0,1.229-0.153,2.397-0.461,3.501
			c-0.309,1.103-0.796,2.073-1.464,2.911c-0.669,0.839-1.544,1.508-2.627,2.006c-1.081,0.499-2.397,0.749-3.946,0.749
			s-2.864-0.25-3.947-0.749c-1.082-0.498-1.957-1.167-2.625-2.006c-0.669-0.838-1.157-1.809-1.465-2.911
			c-0.308-1.104-0.461-2.271-0.461-3.501v-13.941h2.673v13.559c0,0.912,0.095,1.793,0.287,2.642c0.191,0.85,0.509,1.603,0.954,2.261
			c0.446,0.657,1.04,1.183,1.783,1.575c0.742,0.393,1.676,0.589,2.801,0.589c1.124,0,2.058-0.196,2.801-0.589
			c0.742-0.393,1.337-0.918,1.782-1.575c0.446-0.658,0.764-1.411,0.955-2.261c0.19-0.849,0.286-1.729,0.286-2.642v-13.559h2.674
			V156.548z"/>
		<polygon clip-path="url(#SVGID_4_)" fill="#0093B2" points="330.697,142.605 334.675,142.605 342.315,160.271 342.378,160.271 
			350.081,142.605 353.964,142.605 353.964,165.141 351.291,165.141 351.291,146.235 351.228,146.235 343.143,165.141 
			341.52,165.141 333.436,146.235 333.371,146.235 333.371,165.141 330.697,165.141 		"/>
	</g>
	<g clip-path="url(#SVGID_2_)">
		<defs>
			<path id="SVGID_5_" d="M134.179,62.018c-0.093,0.012-0.185,0.026-0.276,0.037c-20.43,26.118-21.511,46.526-20.332,56.37
				c-0.855-3.456-1.544-7.854-1.584-13.158c-0.073-9.656,2.051-23.799,10.827-41.701c-0.869,0.126-1.737,0.254-2.605,0.384
				c-14.147,29.416-10.915,49.407-7.7,58.737c-1.567-3.206-3.172-7.368-4.333-12.547c-2.174-9.703-3.078-24.527,2.201-44.69
				c-0.781,0.122-1.562,0.241-2.343,0.364c-8.538,33.076-0.872,52.656,4.365,61.294c-2.218-2.819-4.678-6.575-6.919-11.424
				c-4.455-9.643-8.709-25.295-7.036-48.385c-0.735,0.112-1.473,0.227-2.209,0.34c-2.68,37.205,9.7,56.068,16.964,63.78
				c-2.767-2.305-5.967-5.475-9.185-9.76c-6.989-9.312-15.275-25.656-17.914-52.457c-0.708,0.11-1.425,0.221-2.133,0.332
				c4.081,41.984,21.654,59.508,30.925,65.938c-3.193-1.688-6.994-4.136-11.047-7.669c-9.563-8.339-22.377-24.476-30.668-54.525
				c-0.004,0.152-0.015,0.307-0.015,0.458c0.007,2.358,0.012,4.715,0.017,7.073c12.847,40.243,33.725,53.844,44.182,58.269
				c-3.472-1.001-7.691-2.614-12.383-5.231c-8.641-4.821-20.201-13.855-31.714-30.643c0.007,1.271,0.009,2.544,0.019,3.816
				c18.649,26.072,37.578,33.185,47.301,35.092c-3.608-0.27-8.076-0.984-13.219-2.585c-8.728-2.718-20.636-8.43-34.041-20.313
				c0.001,0.967,0.005,1.935,0.009,2.902c22.59,19.562,41.5,22.423,51.044,22.306c-3.586,0.475-8.107,0.688-13.477,0.173
				c-9.084-0.872-21.891-4.008-37.454-12.834c0.018,0.844,0.04,1.686,0.065,2.527c26.451,14.761,45.705,13.694,55.065,11.618
				c-3.406,1.197-7.784,2.33-13.145,2.924c-9.442,1.046-23.348,0.516-41.468-5.592c0.065,0.79,0.144,1.577,0.236,2.356
				c30.418,10.115,49.836,4.959,58.799,0.904c-3.08,1.867-7.123,3.87-12.24,5.547c-9.492,3.109-24.208,5.51-44.828,2.594
				c0.204,0.765,0.421,1.523,0.654,2.276c33.946,4.681,52.758-4.786,60.898-10.771c-2.62,2.463-6.162,5.262-10.833,7.959
				c-9.058,5.229-23.893,10.885-46.444,11.884c0.349,0.703,0.717,1.398,1.094,2.091c36.354-1.743,53.559-15.418,60.46-23.166
				c-2.042,2.945-4.915,6.406-8.913,9.999c-8.094,7.271-22.244,16.285-45.837,21.835c0.481,0.617,0.967,1.229,1.474,1.834
				c37.299-8.921,51.904-26.456,57.181-35.705c-1.375,3.289-3.448,7.246-6.586,11.559c-6.639,9.126-19.294,21.437-42.946,31.976
				c0.579,0.521,1.163,1.035,1.753,1.54c36.839-16.569,47.896-37.513,51.185-47.909c-0.649,3.5-1.839,7.794-3.997,12.655
				c-4.772,10.754-15.246,26.259-38.187,42.136c0.629,0.429,1.268,0.845,1.906,1.261c35.215-24.52,41.96-48.345,43.012-59.519
				c0.105,3.555-0.152,7.999-1.234,13.195c-2.523,12.111-10.126,30.68-31.631,52.307c0.652,0.348,1.306,0.695,1.964,1.035
				c32.494-32.82,34.224-58.932,32.841-70.487c0.854,3.456,1.543,7.854,1.583,13.158c0.1,13.162-3.886,34.66-23.237,62.659
				c0.659,0.291,1.319,0.581,1.982,0.866c28.701-41.679,24.701-69.431,20.734-80.944c1.567,3.206,3.171,7.368,4.332,12.546
				c2.739,12.223,3.467,32.563-7.647,61.475c0.097-0.051,0.196-0.099,0.293-0.149c0.871-0.462,1.724-0.947,2.585-1.425
				c15.779-42.622,6.559-66.951,0.547-76.869c2.217,2.819,4.678,6.575,6.918,11.424c4.972,10.761,9.703,28.993,6.208,56.719
				c0.817-0.607,1.612-1.239,2.409-1.871c4.809-41.747-8.64-62.412-16.334-70.583c2.764,2.305,5.966,5.476,9.182,9.761
				c6.85,9.125,14.947,25.006,17.751,50.867c0.644-0.723,1.3-1.432,1.921-2.182c-4.683-39.503-21.537-56.248-30.549-62.498
				c3.192,1.688,6.995,4.135,11.047,7.67c8.282,7.221,19.003,20.292,27.112,43.181c0.456-0.907,0.89-1.822,1.299-2.746
				c-12.923-35.179-32.062-47.536-41.927-51.709c3.471,1,7.691,2.613,12.382,5.23c9.135,5.096,21.53,14.896,33.684,33.59
				c0.215-1.008,0.408-2.021,0.58-3.044c-19.458-29.125-39.698-36.815-49.868-38.811c3.607,0.269,8.075,0.984,13.218,2.585
				c9.531,2.968,22.855,9.505,37.78,23.757c0.004-0.243,0.017-0.481,0.02-0.724c0.008-0.74,0.009-1.481,0.016-2.223
				c-24.254-22.644-44.756-25.829-54.828-25.706c3.585-0.474,8.107-0.687,13.476-0.173c9.847,0.944,24.067,4.549,41.431,15.177
				c0.004-0.839,0.014-1.678,0.017-2.516c-28.542-17.228-49.29-16.153-59.123-13.972c3.407-1.197,7.784-2.33,13.145-2.923
				c10.214-1.132,25.651-0.421,46,7.203c0.001-0.761,0.003-1.522,0.004-2.283c-33.167-12.329-54.148-6.853-63.57-2.59
				c3.078-1.867,7.121-3.87,12.239-5.547c10.466-3.428,27.256-6.016,51.337-1.542c0-0.721,0-1.441,0-2.162
				c-38.489-7.15-59.366,3.212-68.061,9.606c2.62-2.463,6.162-5.261,10.833-7.959c10.429-6.022,28.518-12.605,57.228-11.997
				c0.001-0.703,0.001-1.406,0.002-2.109c-44.568-1.003-64.729,14.75-72.34,23.298c2.042-2.945,4.915-6.407,8.914-9.999
				c9.904-8.901,28.883-20.405,63.142-24.982c-2.338-0.359-4.657-0.715-6.984-1.074c-46.107,7.742-63.176,27.923-68.976,38.091
				c1.374-3.289,3.447-7.246,6.585-11.559c6.255-8.6,17.86-20.024,38.965-30.132c-1.238-0.19-2.474-0.379-3.711-0.568
				c-32.113,16.06-42.141,35.279-45.246,45.093c0.648-3.499,1.839-7.793,3.996-12.654c3.999-9.01,12.006-21.356,27.987-34.46
				c-0.955-0.145-1.912-0.29-2.868-0.435c-25.541,21.384-30.919,41.141-31.849,51.017c-0.105-3.556,0.152-7.999,1.234-13.194
				c2.003-9.616,7.21-23.299,20.025-39.351c-0.261-0.01-0.522-0.016-0.782-0.016C135.379,61.914,134.776,61.945,134.179,62.018"/>
		</defs>
		<clipPath id="SVGID_6_">
			<use xlink:href="#SVGID_5_"  overflow="visible"/>
		</clipPath>
		<defs>
			<filter id="Adobe_OpacityMaskFilter" filterUnits="userSpaceOnUse" x="0" y="0" width="271.057" height="271.221">
				<feColorMatrix  type="matrix" values="1 0 0 0 0  0 1 0 0 0  0 0 1 0 0  0 0 0 1 0"/>
			</filter>
		</defs>
		<mask maskUnits="userSpaceOnUse" x="0" y="0" width="271.057" height="271.221" id="SVGID_7_">
			<g filter="url(#Adobe_OpacityMaskFilter)">
				
					<radialGradient id="SVGID_8_" cx="-118.3262" cy="427.2881" r="1" gradientTransform="matrix(37 -41.75 -41.75 -37 22347.8184 10993.3955)" gradientUnits="userSpaceOnUse">
					<stop  offset="0" style="stop-color:#333333"/>
					<stop  offset="0.15" style="stop-color:#333333"/>
					<stop  offset="0.3032" style="stop-color:#3F3F3F"/>
					<stop  offset="0.5782" style="stop-color:#5E5E5E"/>
					<stop  offset="0.9411" style="stop-color:#909090"/>
					<stop  offset="1" style="stop-color:#999999"/>
				</radialGradient>
				<polygon clip-path="url(#SVGID_6_)" fill="url(#SVGID_8_)" points="0,144.469 128.032,0.001 271.057,126.753 143.024,271.222 
									"/>
			</g>
		</mask>
		
			<radialGradient id="SVGID_9_" cx="-118.3262" cy="427.2881" r="1" gradientTransform="matrix(37 -41.75 -41.75 -37 22347.8184 10993.3955)" gradientUnits="userSpaceOnUse">
			<stop  offset="0" style="stop-color:#0093B2"/>
			<stop  offset="0.15" style="stop-color:#0093B2"/>
			<stop  offset="1" style="stop-color:#0093B2"/>
		</radialGradient>
		<polygon clip-path="url(#SVGID_6_)" mask="url(#SVGID_7_)" fill="url(#SVGID_9_)" points="0,144.468 128.032,0 271.057,126.752 
			143.024,271.221 		"/>
	</g>
	<g clip-path="url(#SVGID_2_)">
		<defs>
			<polygon id="SVGID_10_" points="60.674,48.008 499.674,47.008 499.674,213.008 59.369,213.313 			"/>
		</defs>
		<clipPath id="SVGID_11_">
			<use xlink:href="#SVGID_10_"  overflow="visible"/>
		</clipPath>
		<path clip-path="url(#SVGID_11_)" fill="#003B5C" d="M127.719,171.725c0,3.914-3.173,7.087-7.087,7.087
			c-3.913,0-7.086-3.173-7.086-7.087s3.173-7.087,7.086-7.087C124.546,164.638,127.719,167.811,127.719,171.725"/>
		<path clip-path="url(#SVGID_11_)" fill="#003B5C" d="M176.312,93.853c0,3.131-2.538,5.669-5.669,5.669
			c-3.131,0-5.67-2.538-5.67-5.669c0-3.131,2.539-5.669,5.67-5.669C173.773,88.184,176.312,90.722,176.312,93.853"/>
		<path clip-path="url(#SVGID_11_)" fill="#003B5C" d="M103.035,90.524c0,3.131-2.538,5.669-5.669,5.669
			c-3.131,0-5.67-2.538-5.67-5.669c0-3.131,2.539-5.669,5.67-5.669C100.498,84.855,103.035,87.393,103.035,90.524"/>
		<path clip-path="url(#SVGID_11_)" fill="#003B5C" d="M150.396,125.4c0,9.394-7.615,17.008-17.008,17.008
			c-9.393,0-17.008-7.614-17.008-17.008c0-9.393,7.615-17.008,17.008-17.008C142.781,108.393,150.396,116.008,150.396,125.4"/>
	</g>
</g>
</svg>
